<svg xmlns="http://www.w3.org/2000/svg" width="179" height="57" viewBox="0 0 179 57" fill="none"><path d="M55.0247 26.5601C55.0219 26.5675 55.0159 26.5714 55.0068 26.572C54.5626 26.5982 54.1663 26.6115 53.8181 26.6121C48.3551 26.6206 42.5612 26.6226 36.4364 26.618C36.3574 26.618 36.2796 26.6146 36.2029 26.6078C36.0824 26.5964 35.9168 26.5962 35.7061 26.607C35.2703 26.6291 34.8292 26.626 34.3826 26.5976C33.8196 26.5612 33.3816 26.5195 33.0686 26.4723C31.8193 26.284 30.8547 25.2972 30.4908 24.0879C30.4169 23.8408 30.38 23.473 30.38 22.9844C30.384 15.7171 30.3845 8.44894 30.3817 1.17993C30.3809 0.536544 30.7192 0.0320599 31.4069 0.00138182C31.89 -0.0207746 32.3425 0.223798 32.4525 0.714647C32.4996 0.923713 32.5258 1.12568 32.5309 1.32054C32.5479 1.91194 32.5567 2.45279 32.5573 2.94307C32.5652 8.41456 32.5678 14.1588 32.565 20.1756C32.565 21.2008 32.5334 22.2328 32.5462 23.2409C32.5607 24.3368 33.424 24.4407 34.2787 24.4399C41.254 24.437 48.2219 24.4348 55.1824 24.4331C55.8079 24.4331 56.6583 24.3777 56.9165 25.1208C57.0895 25.6193 56.92 26.1843 56.4231 26.4254C56.2976 26.4862 56.088 26.5206 55.7942 26.5286C55.538 26.5348 55.2886 26.5405 55.046 26.5456C55.0358 26.5456 55.0287 26.5504 55.0247 26.5601Z" fill="#3E6AFF"></path><path d="M0.52338 26.3999L0.294146 26.2576C0.268581 26.2422 0.249834 26.2212 0.237903 26.1945C0.184217 26.0761 0.087921 26.0062 0.0563907 25.8767C-0.088478 25.2779 0.0819558 24.8401 0.567692 24.5635C0.785848 24.4391 1.04405 24.4391 1.28948 24.4391C8.51076 24.4368 15.7394 24.4371 22.9755 24.4399C23.7458 24.4399 24.3807 24.1894 24.4174 23.3048C24.4472 22.5762 24.4293 21.9396 24.4293 21.2579C24.4219 14.6189 24.4182 7.97372 24.4182 1.32226C24.4182 1.11092 24.4327 0.94759 24.4617 0.832263C24.5724 0.401065 24.8699 0.0516767 25.336 0.0261117C25.6121 0.0113407 25.8283 0.0303724 25.9845 0.0832068C26.0805 0.115589 26.1816 0.184046 26.2879 0.288579C26.3771 0.376068 26.4384 0.472932 26.4719 0.579169C26.5691 0.88879 26.6176 1.18279 26.6176 1.46116C26.6205 8.26659 26.6216 15.0328 26.6211 21.7598C26.6205 22.2615 26.61 22.7631 26.5895 23.2648C26.539 24.4873 26.0095 25.4225 25.0011 26.0701C24.6062 26.3241 24.1529 26.4706 23.641 26.5098C23.6257 26.511 23.5743 26.52 23.4868 26.5371C23.4459 26.545 23.3928 26.5516 23.3274 26.5567C22.9087 26.5885 22.5741 26.6047 22.3236 26.6053C16.6674 26.62 10.909 26.6237 5.0484 26.6163C3.82355 26.6146 2.66602 26.6081 1.57581 26.5967C1.44173 26.5956 1.3176 26.5766 1.20341 26.5397C1.13183 26.5169 1.06025 26.5081 0.988664 26.5132C0.929012 26.5178 0.858282 26.5127 0.776474 26.4979C0.686144 26.4814 0.601779 26.4488 0.52338 26.3999Z" fill="#2DD2F7"></path><path d="M20.5707 2.87319C21.0655 3.25894 21.337 3.72764 21.3853 4.27927C21.4279 4.76757 21.4688 5.2516 21.468 5.74756C21.4617 9.39143 21.4612 13.0203 21.4663 16.634C21.4671 17.1453 21.4305 17.6592 21.4041 18.1705C21.3825 18.5983 21.2953 18.9687 21.1425 19.2817C20.603 20.3878 19.6776 21.1011 18.4803 21.1982C18.1695 21.2232 17.9531 21.2357 17.8309 21.2357C13.7115 21.2318 9.56432 21.2315 5.38926 21.2349C5.04584 21.2357 4.66066 21.2374 4.33854 21.1761C3.66248 21.046 3.16453 20.6744 2.84468 20.0614C2.77083 19.9211 2.71175 19.766 2.66743 19.5962C2.62596 19.4382 2.60437 19.2843 2.60267 19.1343C2.59699 18.6627 2.61318 18.221 2.65124 17.8092C2.65181 17.8035 2.65266 17.7978 2.6538 17.7921C2.74157 17.2408 2.77907 16.6511 2.88389 16.0912C3.0975 14.947 3.44802 13.7753 3.93546 12.576C4.70582 10.6816 5.87926 9.03267 7.26574 7.55075C7.64808 7.14228 8.05627 6.75454 8.49031 6.38754C10.5219 4.67013 12.8554 3.49527 15.4909 2.86297C15.7505 2.80104 15.9883 2.76355 16.2041 2.75048C16.2348 2.74878 16.2561 2.73287 16.2681 2.70276C16.2777 2.67776 16.2962 2.66441 16.3234 2.66271L17.1381 2.59624C17.1677 2.5934 17.1804 2.57749 17.1765 2.54852C17.1753 2.53999 17.1711 2.53403 17.1637 2.53062C17.1233 2.5096 17.1259 2.49767 17.1714 2.49483C17.802 2.4579 18.4772 2.44143 19.197 2.4454C19.4151 2.44711 19.6131 2.46614 19.7909 2.5025C19.8154 2.50761 19.8196 2.51983 19.8037 2.53914C19.8014 2.54198 19.8014 2.54482 19.8037 2.54766C19.8088 2.55391 19.8156 2.55761 19.8242 2.55874C19.9804 2.58203 20.1315 2.61981 20.2775 2.67208C20.2974 2.67947 20.3042 2.6931 20.298 2.71299C20.2951 2.72094 20.2971 2.72776 20.3039 2.73344C20.3068 2.73514 20.3096 2.73628 20.3124 2.73685C20.3823 2.74821 20.4684 2.79366 20.5707 2.87319ZM17.0001 4.7633C16.599 4.81273 16.1982 4.88857 15.7977 4.99083C14.6063 5.29364 13.5351 5.69501 12.5841 6.19495C10.5026 7.29027 8.7613 8.82105 7.36033 10.7873C6.3542 12.199 5.62219 13.8125 5.16429 15.6276C5.07169 15.9946 5.00266 16.348 4.95721 16.6877C4.91801 16.9843 4.83961 17.2501 4.82853 17.5535C4.80922 18.0921 4.79729 18.5954 4.79274 19.0636C4.79263 19.0731 4.79441 19.0826 4.79796 19.0914C4.80152 19.1003 4.80679 19.1083 4.81346 19.115C4.82013 19.1218 4.82807 19.1271 4.8368 19.1307C4.84554 19.1343 4.85489 19.1361 4.86433 19.136C9.1888 19.1269 13.4675 19.1249 17.7006 19.13C17.996 19.13 18.2758 19.0951 18.5399 19.0252C19.2464 18.8377 19.3043 18.0665 19.3035 17.4751C19.2978 13.2364 19.2972 8.97359 19.3018 4.68661C19.3019 4.6774 19.3001 4.66826 19.2966 4.65973C19.2931 4.65121 19.2879 4.64346 19.2813 4.63695C19.2747 4.63043 19.2669 4.62529 19.2583 4.62182C19.2496 4.61835 19.2404 4.61662 19.231 4.61673C18.6896 4.62128 18.1281 4.63633 17.5463 4.6619C17.3495 4.67042 17.1858 4.7403 17.0001 4.7633Z" fill="#2DD2F7"></path><path d="M54.5696 18.8309C54.5688 19.4428 54.4648 20.0785 54.1086 20.5472C53.6632 21.1352 53.0477 21.4184 52.262 21.3968C51.6254 21.3798 50.9939 21.3985 50.3599 21.2911C49.9679 21.2255 49.5734 21.188 49.1746 21.1028C48.0724 20.8665 47.1126 20.5867 46.2951 20.2634C43.1631 19.0244 40.6034 16.9783 38.6162 14.1252C37.3959 12.374 36.623 10.472 36.1355 8.414C36.0753 8.16006 36.0298 7.92628 35.9992 7.71267C35.954 7.39481 35.8628 7.09314 35.8424 6.77358C35.8106 6.26682 35.7733 5.74984 35.7307 5.22263C35.6421 4.13271 36.0955 3.10243 37.176 2.74452C37.4623 2.64965 37.8853 2.60249 38.4449 2.60306C42.691 2.61045 46.8919 2.61187 51.0476 2.60732C51.9185 2.60676 52.6432 2.82917 53.2215 3.27457C53.7658 3.69384 54.1461 4.21395 54.3626 4.83489C54.5364 5.33341 54.5722 5.918 54.573 6.46083C54.5782 10.8751 54.577 14.9984 54.5696 18.8309ZM52.1802 19.1999C52.2313 19.2073 52.2801 19.2116 52.3267 19.2127C52.3608 19.2133 52.3776 19.1965 52.377 19.1624C52.3702 14.4346 52.373 10.0328 52.3855 5.9572C52.3872 5.40755 52.1333 4.88432 51.5402 4.7991C51.1845 4.74797 50.8204 4.72212 50.4477 4.72156C46.4879 4.71474 42.3166 4.71133 37.9336 4.71133C37.9029 4.71133 37.8867 4.72667 37.885 4.75735C37.8595 5.21752 37.8785 5.72655 37.9421 6.28443C38.1194 7.84163 38.5148 9.31873 39.1283 10.7157C39.4914 11.5423 39.9691 12.3632 40.5617 13.1785C41.6769 14.7124 42.9651 15.9546 44.4263 16.905C45.8755 17.8481 47.3915 18.5054 48.9743 18.8769C49.1118 18.9093 49.2527 18.938 49.397 18.963C49.5373 18.988 49.6776 19.0167 49.8179 19.0491C50.0594 19.1053 50.2665 19.1383 50.4392 19.1479C50.9528 19.1775 51.468 19.1903 51.985 19.1863C52.052 19.1863 52.1171 19.1908 52.1802 19.1999Z" fill="#3E6AFF"></path><path d="M144.675 13.083C144.713 14.7476 144.72 16.4116 144.695 18.075C144.705 18.0904 144.699 18.1066 144.677 18.1236L144.675 13.083Z" fill="#615B81"></path><path d="M51.6604 29.5938C53.0574 29.5858 54.46 29.6089 55.8684 29.6628C55.9496 29.6657 56.0257 29.6753 56.0968 29.6918C56.2067 29.7174 56.3064 29.7284 56.4069 29.7847C56.7847 29.9966 56.9753 30.2931 56.9788 30.6743C56.9827 31.1976 56.7569 31.5444 56.3013 31.7148C56.0559 31.8069 55.7465 31.7813 55.4755 31.7813C48.8161 31.7825 41.807 31.7819 34.4483 31.7796C34.1278 31.779 33.8196 31.7989 33.5236 31.8393C32.9101 31.9219 32.5394 32.3966 32.5411 32.9999C32.5644 40.6694 32.5638 47.9109 32.5394 54.7243C32.5388 54.9879 32.515 55.2435 32.4678 55.4912C32.3826 55.9343 31.9625 56.2258 31.5304 56.2411C31.1049 56.2565 30.7862 56.0997 30.5743 55.7707C30.4862 55.6338 30.4314 55.4949 30.4098 55.354C30.3882 55.2092 30.3774 55.0529 30.3774 54.8853C30.3837 47.6879 30.3848 40.3644 30.3808 32.9147C30.38 31.3118 31.7954 29.7566 33.3984 29.7071C33.4773 29.7049 33.5552 29.6924 33.6319 29.6696C33.6762 29.6571 33.7205 29.6452 33.7648 29.6339C33.8773 29.6049 34.0111 29.6287 34.1244 29.616C34.2238 29.6052 34.2983 29.5998 34.3477 29.5998C35.2976 29.6037 36.2472 29.6023 37.1965 29.5955C37.4453 29.5932 37.6396 29.5898 37.7794 29.5853C37.9197 29.5802 38.0566 29.5836 38.1901 29.5955C38.3802 29.6125 38.5497 29.5657 38.7432 29.587C38.8721 29.6012 39.002 29.6026 39.1326 29.5912C39.3431 29.5733 39.534 29.6057 39.7377 29.5912C39.8939 29.5799 40.0456 29.581 40.1927 29.5947C40.2978 29.6043 40.4009 29.6026 40.5021 29.5895C40.5975 29.577 40.6947 29.5765 40.7935 29.5878C40.9157 29.6015 41.0349 29.6023 41.1514 29.5904C41.3883 29.5665 41.6039 29.6117 41.8417 29.5887C41.9547 29.5779 42.0664 29.5782 42.1766 29.5895C42.293 29.6009 42.4129 29.6006 42.5362 29.5887C42.7475 29.5674 42.9418 29.61 43.148 29.5921C43.302 29.579 43.4537 29.5799 43.6031 29.5947C43.7065 29.6043 43.8085 29.6026 43.909 29.5895C44.0045 29.5776 44.1019 29.577 44.2013 29.5878C44.3087 29.5998 44.4124 29.6015 44.5124 29.5929C44.6663 29.5793 44.818 29.5799 44.9674 29.5947C45.0703 29.6043 45.1711 29.6029 45.2699 29.5904C45.3682 29.5773 45.4705 29.5768 45.5767 29.5887C45.704 29.6023 45.8241 29.6026 45.9372 29.5895C46.0474 29.577 46.1582 29.577 46.2695 29.5895C46.3843 29.602 46.4991 29.602 46.6138 29.5895C46.8473 29.564 47.0621 29.6151 47.2947 29.5895C47.5282 29.5648 47.7429 29.6143 47.9764 29.5895C48.0901 29.5776 48.2037 29.5776 48.3173 29.5895C48.4292 29.6009 48.5437 29.6009 48.6607 29.5895C48.8925 29.5665 49.109 29.6143 49.3365 29.5904C49.5777 29.5657 49.8035 29.6151 50.0438 29.5912C50.2483 29.5708 50.4418 29.6066 50.6463 29.5912C50.7991 29.5799 50.9514 29.5805 51.103 29.5929C51.2468 29.6043 51.3911 29.5992 51.536 29.5776C51.5632 29.5736 51.5905 29.5765 51.6178 29.5861C51.6313 29.5912 51.6457 29.5938 51.6604 29.5938Z" fill="#2DD2F7"></path><path d="M25.7697 56.2096C25.3198 56.3056 24.9502 56.1798 24.6611 55.8321C24.5037 55.6429 24.425 55.4157 24.425 55.1504C24.4216 48.1024 24.4213 40.7146 24.4242 32.9872C24.4242 32.7639 24.3551 32.5253 24.2554 32.3302C24.0424 31.9151 23.5123 31.8018 23.0718 31.7924C22.6707 31.7833 22.2565 31.7788 21.8293 31.7788C15.108 31.7839 8.34941 31.7865 1.55365 31.7865C0.865947 31.7865 0.185064 31.7583 0.0205952 30.9266C-0.103821 30.2935 0.34868 29.6884 1.02104 29.691C7.82419 29.7154 14.7981 29.7168 21.9426 29.6952C22.3517 29.6941 22.7704 29.6898 23.1987 29.6825C23.9612 29.6688 24.644 29.8856 25.2474 30.3327C25.8507 30.7798 26.2501 31.355 26.4455 32.0583C26.5608 32.4725 26.6185 32.9787 26.6185 33.5769C26.6225 40.5902 26.6213 47.3164 26.6151 53.7554C26.6145 54.2224 26.5983 54.7166 26.5665 55.2382C26.5341 55.7801 26.2685 56.104 25.7697 56.2096Z" fill="#3E6AFF"></path><path d="M5.4225 34.9437C5.84915 34.9704 6.27609 34.9929 6.70331 35.011C6.90556 35.0201 7.09871 35.0474 7.28278 35.0928C7.54014 35.1568 7.8009 35.1678 8.06422 35.2224C11.7109 35.9791 14.7674 37.7377 17.2336 40.4981C18.2885 41.6793 19.2549 43.087 19.9128 44.5596C20.4235 45.7032 20.8118 46.8835 21.0777 48.1004C21.1266 48.3219 21.1646 48.5387 21.1919 48.7506C21.2311 49.0514 21.312 49.3266 21.3351 49.6283C21.3822 50.2509 21.4081 50.8333 21.4126 51.3752C21.416 51.786 21.3725 52.2291 21.1578 52.593C20.8624 53.0929 20.4908 53.4122 20.0432 53.5508C19.5148 53.7136 18.8961 53.7417 18.3133 53.7417C14.7336 53.7417 11.1102 53.7411 7.44299 53.74C6.97203 53.74 6.51611 53.7298 6.07526 53.7093C5.53612 53.6849 5.09555 53.6088 4.75354 53.4809C3.74031 53.1026 3.0066 52.2419 2.71345 51.2218C2.63732 50.9554 2.59926 50.6103 2.59926 50.1865C2.60324 46.1091 2.60494 42.0701 2.60437 38.0695C2.60437 37.5445 2.55921 36.954 2.69896 36.4887C2.87508 35.9018 3.22674 35.4587 3.75395 35.1593C3.90564 35.0735 4.05562 35.0176 4.20389 34.9914C4.36865 34.9619 4.5405 34.9326 4.71946 34.9037C4.85069 34.8821 4.97937 34.8804 5.10549 34.8985C5.31058 34.9287 5.41625 34.9437 5.4225 34.9437ZM19.191 49.9743C19.1109 49.5644 19.1782 49.1715 19.0385 48.7719C19.0055 48.6787 18.9816 48.577 18.9669 48.4668C18.9566 48.3861 18.9416 48.3054 18.9217 48.2248C18.5289 46.6338 17.9136 45.0641 17.0035 43.7006C16.1249 42.384 15.0861 41.1876 13.8368 40.1956C11.9666 38.7106 9.86514 37.7397 7.53247 37.2829C7.19416 37.2164 6.86522 37.2045 6.52776 37.1687C6.50901 37.1665 6.50418 37.1571 6.51327 37.1406C6.51725 37.1326 6.5235 37.1281 6.53202 37.127C6.5877 37.1184 6.58826 37.1077 6.53373 37.0946C6.50816 37.0883 6.48174 37.0846 6.45447 37.0835C5.93408 37.0585 5.40318 37.0449 4.86177 37.0426C4.85155 37.0425 4.84142 37.0444 4.83196 37.0483C4.8225 37.0522 4.81391 37.058 4.80668 37.0653C4.79946 37.0726 4.79375 37.0813 4.78989 37.0909C4.78604 37.1004 4.78411 37.1107 4.78422 37.121C4.79331 37.8931 4.79274 38.6708 4.78252 39.4542C4.77343 40.1763 4.76917 40.7444 4.76974 41.1586C4.77655 44.2338 4.77201 47.2377 4.7561 50.1703C4.74673 51.861 6.0906 51.5397 7.26148 51.5406C10.7571 51.5406 14.2763 51.5411 17.819 51.5423C18.2937 51.5423 18.7726 51.5678 19.2396 51.5729C19.2468 51.5731 19.2541 51.5717 19.2608 51.5691C19.2676 51.5664 19.2738 51.5624 19.279 51.5573C19.2842 51.5523 19.2884 51.5462 19.2913 51.5395C19.2942 51.5329 19.2957 51.5257 19.2958 51.5184C19.3038 51.0423 19.2901 50.5779 19.2549 50.1251C19.2532 50.0984 19.2447 50.0757 19.2293 50.0569C19.2095 50.0325 19.1967 50.0049 19.191 49.9743Z" fill="#3E6AFF"></path><path d="M35.9642 52.6765C35.9074 52.6339 35.8745 52.5754 35.8654 52.501C35.8443 52.33 35.8148 52.1681 35.7767 52.0152C35.7347 51.8465 35.7111 51.707 35.706 51.5968C35.6998 51.4485 35.6963 51.3042 35.6958 51.1639C35.6912 47.4104 35.6918 43.6711 35.6975 39.946C35.6975 39.4389 35.729 38.914 35.7341 38.4052C35.7461 37.3497 36.1633 36.4799 36.986 35.7959C37.3694 35.4772 37.8012 35.2693 38.2813 35.1721C38.7829 35.0704 39.3161 35.019 39.8808 35.0179C43.8246 35.0133 47.6026 35.0119 51.2146 35.0136C51.5328 35.0136 51.9038 35.0235 52.3276 35.0434C52.5781 35.0554 52.8142 35.1338 53.0647 35.1815C53.1278 35.1934 53.1956 35.2204 53.2684 35.2624C53.3561 35.3136 53.4473 35.34 53.5359 35.3971C54.6429 36.1163 54.6267 37.2736 54.5441 38.4615C54.5304 38.6566 54.4614 38.8322 54.4444 39.029C54.3955 39.5835 54.3094 40.14 54.1861 40.6984C53.9089 41.9522 53.5041 43.1657 52.9718 44.3389C52.2364 45.9631 51.1499 47.4229 49.9066 48.7574C49.5236 49.1687 49.1203 49.5527 48.6965 49.9095C46.5161 51.744 44.0737 52.9449 41.3695 53.5125C41.1889 53.5506 41.0085 53.5824 40.8284 53.6079C40.708 53.6244 40.5901 53.6505 40.4747 53.6863C40.3679 53.7199 40.2515 53.738 40.1254 53.7409C39.9021 53.7466 39.689 53.7571 39.4862 53.7724C39.4459 53.7752 39.4149 53.796 39.3933 53.8346C39.3913 53.8382 39.3903 53.8422 39.3904 53.8463C39.3906 53.8504 39.3918 53.8543 39.3941 53.8577C39.3963 53.861 39.3995 53.8636 39.4031 53.8651C39.4068 53.8666 39.4108 53.8669 39.4146 53.8661C39.426 53.8639 39.4342 53.8579 39.4394 53.8482C39.4416 53.8443 39.4433 53.8446 39.4445 53.8491C39.445 53.8519 39.4453 53.8548 39.4453 53.8576C39.4459 53.861 39.4442 53.863 39.4402 53.8636C38.7965 53.8954 38.3182 53.9048 38.0052 53.8917C37.6864 53.8786 37.4086 53.8221 37.1717 53.7221C37.0695 53.6795 36.9635 53.6378 36.8539 53.5969C36.7522 53.5588 36.6613 53.5071 36.5812 53.4418C36.3988 53.2926 36.0281 52.9424 35.9923 52.7234C35.9889 52.7041 35.9795 52.6884 35.9642 52.6765ZM39.493 51.6548C39.5706 51.6326 39.6268 51.5883 39.7129 51.584C40.0171 51.567 40.3086 51.5457 40.6136 51.4877C43.1287 51.0088 45.3594 49.9399 47.3057 48.281C48.3079 47.4266 49.2243 46.3875 50.0548 45.1638C51.1081 43.6111 51.8001 41.779 52.1571 39.9434C52.2066 39.6906 52.2517 39.4321 52.2926 39.1679C52.3898 38.5424 52.3881 37.9255 52.3932 37.3034C52.3938 37.2386 52.3619 37.2062 52.2977 37.2062C47.9102 37.2125 43.509 37.2133 39.0942 37.2088C38.9266 37.2082 38.7616 37.2381 38.5991 37.2983C38.2401 37.4306 38.0134 37.6988 37.9191 38.1027C37.8645 38.3362 37.8739 38.5936 37.8739 38.8373C37.8722 43.1044 37.8725 47.3746 37.8748 51.648C37.8748 51.6651 37.8815 51.6816 37.8935 51.6937C37.9055 51.7059 37.9217 51.7127 37.9387 51.7127C38.3483 51.7138 38.7681 51.7093 39.1982 51.6991C39.2982 51.6962 39.3965 51.6815 39.493 51.6548Z" fill="#2DD2F7"></path><path d="M79.9685 26.3283L79.9779 26.4169C79.9813 26.4499 79.9995 26.4664 80.0325 26.4664L96.8244 26.4646L96.8219 34.671C91.2277 34.6756 85.6338 34.6733 80.0401 34.6642C79.968 34.6642 79.9535 34.7105 79.9967 34.8031L79.9668 47.7919L69.2849 47.7987C69.2741 47.7987 69.2634 47.7965 69.2535 47.7922C69.2435 47.7879 69.2346 47.7816 69.2272 47.7737C69.2199 47.7657 69.2142 47.7564 69.2107 47.7462C69.2071 47.736 69.2057 47.7251 69.2065 47.7143C69.2483 47.1536 69.2108 46.5878 69.2108 46.0236C69.2102 34.1688 69.2096 22.314 69.2091 10.4592C69.2091 10.1519 69.1656 9.93001 69.0787 9.79366L69.1051 9.63175C69.1096 9.60448 69.1258 9.59085 69.1537 9.59085L99.0418 9.58914C99.1105 9.58914 99.1449 9.62351 99.1449 9.69225L99.1424 17.8202C99.1424 17.8377 99.1389 17.855 99.1323 17.8711C99.1257 17.8872 99.1159 17.9019 99.1037 17.9142C99.0914 17.9266 99.0768 17.9364 99.0608 17.9431C99.0448 17.9497 99.0276 17.9532 99.0103 17.9532H80.0137C79.983 17.9532 79.9677 17.9685 79.9677 17.9992L79.9685 26.3283Z" fill="#2C2355"></path><path d="M114.931 9.61469C114.937 14.3476 114.936 19.08 114.929 23.8118C114.928 23.8573 114.937 23.8871 114.956 23.9013C114.981 23.92 115.018 23.9218 115.068 23.9064C115.098 23.9348 115.116 23.9422 115.123 23.9286C115.087 23.9905 115.083 24.0345 115.109 24.0607C115.128 24.0792 115.153 24.0896 115.179 24.0896C119.998 24.0908 124.83 24.0902 129.675 24.0879C129.683 24.088 129.692 24.0862 129.699 24.0826C129.707 24.079 129.713 24.0737 129.719 24.0672C129.724 24.0606 129.728 24.0529 129.73 24.0447C129.732 24.0365 129.732 24.028 129.73 24.0198L129.71 23.9277C129.726 23.9237 129.742 23.9201 129.758 23.9166C129.796 23.9246 129.828 23.9257 129.852 23.92C129.881 23.9121 129.895 23.8933 129.895 23.8638L129.887 9.6002L140.593 9.59424C140.607 9.59424 140.62 9.59971 140.629 9.60946C140.639 9.61921 140.645 9.63243 140.645 9.64622L140.63 47.7944L129.969 47.7987C129.914 47.7987 129.887 47.7717 129.887 47.7177L129.891 33.0331C129.891 33.0053 129.878 32.9874 129.851 32.9795L129.762 32.953L115.077 32.9786C115.029 32.9701 114.992 32.9689 114.966 32.9752C114.945 32.9803 114.935 32.9939 114.935 33.0161L114.941 47.7322C114.941 47.7496 114.934 47.7663 114.921 47.7786C114.909 47.7909 114.892 47.7978 114.874 47.7978C111.406 47.7961 107.955 47.7947 104.519 47.7936C104.462 47.7936 104.405 47.7873 104.347 47.7748C104.29 47.7629 104.244 47.7757 104.209 47.8132L104.189 9.659C104.189 9.65027 104.191 9.64163 104.194 9.63356C104.197 9.6255 104.202 9.61817 104.208 9.612C104.215 9.60583 104.222 9.60093 104.23 9.59759C104.238 9.59425 104.247 9.59253 104.255 9.59253L114.931 9.61469Z" fill="#2C2355"></path><path d="M167.255 47.8038L156.572 47.8064C156.56 47.8064 156.548 47.804 156.537 47.7994C156.526 47.7948 156.517 47.788 156.508 47.7795C156.5 47.771 156.494 47.7609 156.49 47.7498C156.485 47.7388 156.484 47.727 156.484 47.7152C156.502 47.2422 156.469 46.7727 156.469 46.3006C156.458 38.1891 156.463 29.3382 156.485 19.7478C156.486 19.2559 156.487 18.7403 156.489 18.2012C156.489 18.1711 156.475 18.1512 156.446 18.1415C156.42 18.1324 156.386 18.1338 156.342 18.1458L144.677 18.1236C144.699 18.1066 144.705 18.0904 144.695 18.075C144.719 16.4116 144.713 14.7476 144.675 13.083L144.664 9.69055C144.663 9.67761 144.666 9.66477 144.671 9.65278C144.676 9.6408 144.683 9.62989 144.692 9.6207C144.701 9.61151 144.712 9.60422 144.724 9.59924C144.736 9.59426 144.749 9.5917 144.762 9.5917L178.893 9.58743C178.916 9.58743 178.937 9.59632 178.953 9.61214C178.969 9.62797 178.978 9.64942 178.978 9.6718L179 18.064C179 18.0857 178.991 18.1065 178.976 18.1218C178.961 18.1371 178.94 18.1458 178.918 18.1458C176.461 18.1571 173.966 18.1617 171.434 18.1594C170.118 18.1577 168.726 18.1253 167.387 18.1415C167.352 18.142 167.318 18.1562 167.294 18.1813C167.269 18.2063 167.255 18.2401 167.255 18.2753V47.8038Z" fill="#2C2355"></path></svg>